<svg xmlns="http://www.w3.org/2000/svg" viewBox="0 0 247.11 207.14"><defs><style>.cls-1{fill:#f2791f;}.cls-2{fill:#f5871f;}.cls-3{fill:#fff;stroke:#426db4;stroke-miterlimit:10;stroke-width:5.19px;}</style></defs><g id="Layer_2" data-name="Layer 2"><g id="Logo_Stamp" data-name="Logo Stamp"><path class="cls-1" d="M244.6,103.45c-3.41,14.37-10.09,27.83-18.68,39.82a147.81,147.81,0,0,1-31.09,31.44,162,162,0,0,1-82,31.85,136.79,136.79,0,0,1-44.4-3.06c-14.48-3.56-28.4-10-40-19.5a77.18,77.18,0,0,1-25-36.6c-4.49-14.33-4.35-29.81-.73-44.19a103.32,103.32,0,0,1,7.69-20.83A125.89,125.89,0,0,1,22,63.49,138.44,138.44,0,0,1,36.58,46.85,163.38,163.38,0,0,1,53.44,32.52,169.11,169.11,0,0,1,72.1,20.59a162.83,162.83,0,0,1,20-9.46A161.05,161.05,0,0,1,135.21.64a133.77,133.77,0,0,1,44.31,2.94,97.76,97.76,0,0,1,39.73,19.63,77,77,0,0,1,24.5,36.48A83.22,83.22,0,0,1,244.6,103.45Zm-.31-.07a85.57,85.57,0,0,0,2.37-21.85A75,75,0,0,0,243,59.94a75.52,75.52,0,0,0-25-35.16,93.38,93.38,0,0,0-18.56-11.36,110.44,110.44,0,0,0-20.57-7.1,140.26,140.26,0,0,0-43.4-3A160.57,160.57,0,0,0,54.1,33.42,140.51,140.51,0,0,0,22.88,64.16,108.18,108.18,0,0,0,4.39,103.62a86,86,0,0,0-2.2,21.66,77.58,77.58,0,0,0,3.65,21.34,71.93,71.93,0,0,0,9.71,19.29,77.18,77.18,0,0,0,14.77,15.75,97.63,97.63,0,0,0,38.87,18.59,137,137,0,0,0,43.31,2.9A162.51,162.51,0,0,0,155,193.43,168.18,168.18,0,0,0,193.58,173a144.38,144.38,0,0,0,31.62-30.27A107.33,107.33,0,0,0,244.29,103.38Z" transform="translate(0)"/><path class="cls-2" d="M134.53,90.19H109.37v50.33H80.28V90.19H55.12V64.27h79.41Z" transform="translate(0)"/><path class="cls-2" d="M109.81,141.36h27.45c0,5.22,5.88,6.86,10.78,6.86,5.56,0,8.06-1.31,8.06-3.81,0-3.49-9-4.25-17.54-6.54-18-5-25.81-10.13-25.81-22.77,0-25,24.94-26.25,37.36-26.25,15.69,0,35.4,6.1,35.4,26.14h-26.9c0-3.92-4-6.1-8.61-6.1s-7.73,1.2-7.73,4.14c0,4.36,12.31,5.56,19.6,7.3S187.8,124,187.8,142.66c0,21.79-17.54,26.47-37.14,26.47C121.9,169.13,109.81,153.77,109.81,141.36Z" transform="translate(0)"/><path class="cls-3" d="M123.86,77.72H98.69v50.33H69.61V77.72H44.44V51.8h79.42Z" transform="translate(0)"/><path class="cls-3" d="M99.13,128.89h27.45c0,5.23,5.88,6.86,10.79,6.86,5.55,0,8.06-1.31,8.06-3.81,0-3.49-9-4.25-17.54-6.54-18-5-25.82-10.13-25.82-22.77,0-25,25-26.25,37.37-26.25,15.68,0,35.4,6.1,35.4,26.14H147.93c0-3.92-4-6.1-8.6-6.1s-7.74,1.2-7.74,4.14c0,4.36,12.31,5.56,19.61,7.3s25.93,3.71,25.93,22.33c0,21.79-17.54,26.47-37.15,26.47C111.22,156.66,99.13,141.3,99.13,128.89Z" transform="translate(0)"/></g></g></svg>