<svg xmlns="http://www.w3.org/2000/svg" viewBox="0 0 1049.41 644.2"><defs><style>.cls-1,.cls-4{fill:#fff;}.cls-2{fill:#f80;}.cls-3{fill:#e6f7ff;stroke:#286fe3;stroke-miterlimit:10;stroke-width:8.78px;}.cls-4{font-size:51.59px;font-family:Cherry-Days, Cherry Days;}</style></defs><g id="Layer_2" data-name="Layer 2"><g id="Logo_Full" data-name="Logo Full"><path class="cls-1" d="M581.12,178.94a707.47,707.47,0,0,1,119.44-38.08,607.52,607.52,0,0,1,61.86-10.53,516.69,516.69,0,0,1,62.67-3.59,402.71,402.71,0,0,1,62.59,5A291.61,291.61,0,0,1,948.32,148a217.25,217.25,0,0,1,28.36,13.62,175.27,175.27,0,0,1,25.72,18.16A130.36,130.36,0,0,1,1049,291.83a174.88,174.88,0,0,1-5.27,31,219,219,0,0,1-10.3,29.69A291.77,291.77,0,0,1,1002.26,407a408.91,408.91,0,0,1-40.43,48A521.09,521.09,0,0,1,915.29,497a603.57,603.57,0,0,1-50.88,36.73,704,704,0,0,1-111,58.34,703.78,703.78,0,0,1-119.49,38.15A606.18,606.18,0,0,1,572,640.7a511.36,511.36,0,0,1-62.71,3.49,408,408,0,0,1-62.62-5.06A292.06,292.06,0,0,1,386,622.83a218.86,218.86,0,0,1-28.38-13.64A176.75,176.75,0,0,1,331.86,591a130.89,130.89,0,0,1-46.77-112.24,176.65,176.65,0,0,1,5.23-31.06A219.14,219.14,0,0,1,300.62,418a292,292,0,0,1,31.17-54.53,405.09,405.09,0,0,1,40.53-47.95,514.17,514.17,0,0,1,46.67-42A608.63,608.63,0,0,1,470,237,707.29,707.29,0,0,1,581.12,178.94Zm.07.17a699.45,699.45,0,0,0-110.91,58.3,606.15,606.15,0,0,0-50.76,36.78,513.8,513.8,0,0,0-46.33,42.16,411.77,411.77,0,0,0-40.16,48,290.07,290.07,0,0,0-30.8,54.32,220.62,220.62,0,0,0-10.13,29.52A173.14,173.14,0,0,0,287,478.93a129,129,0,0,0,46.17,110.63,173.52,173.52,0,0,0,25.46,18,220.89,220.89,0,0,0,28.11,13.55A290.35,290.35,0,0,0,447,637.34a407.88,407.88,0,0,0,62.34,5.13,518.43,518.43,0,0,0,62.52-3.37,603.89,603.89,0,0,0,61.79-10.24A702.86,702.86,0,0,0,753,591.15a702.32,702.32,0,0,0,111-58c35.12-22.66,68.2-48.68,97.36-78.65a407.16,407.16,0,0,0,40.27-48,291.13,291.13,0,0,0,30.82-54.41,217.64,217.64,0,0,0,10.12-29.58,173.72,173.72,0,0,0,5.11-30.8A129.5,129.5,0,0,0,1001.36,181,175.5,175.5,0,0,0,975.86,163a221.27,221.27,0,0,0-28.13-13.57,291.17,291.17,0,0,0-60.29-16.32,412.07,412.07,0,0,0-62.36-5.22,511.07,511.07,0,0,0-62.57,3.25,607.63,607.63,0,0,0-61.85,10.19A698.72,698.72,0,0,0,581.19,179.11Z"/><path class="cls-2" d="M238.4,135.56H195.8v85.2H146.56v-85.2H104V91.67H238.4Z"/><path class="cls-2" d="M322.65,186.27h-21.2v34.49H252.21V91.67h76.16c37.62,0,55.88,15.67,55.88,47.39,0,17.15-5.35,29.51-16.23,37.25l24,44.45H339.25Zm-21.2-36.88h22.31c8.11,0,12.36-1.84,12.36-10.33,0-8.66-4.25-10.51-12.36-10.51H301.45Z"/><path class="cls-2" d="M539.32,91.67v66.39c0,43.7-23.42,66.2-69,66.2-45.73,0-69.15-22.5-69.15-66.2V91.67h49.24v66.39c0,14.56,8.29,20.28,19.91,20.28s19.92-5.72,19.92-20.28V91.67Z"/><path class="cls-2" d="M605,130.4v8.29h62.89v35H605v8.48h68.24v38.55H555.9V91.67H673.19V130.4Z"/><path class="cls-2" d="M22.46,308.76H68.93c0,8.85,10,11.62,18.26,11.62,9.4,0,13.64-2.22,13.64-6.46,0-5.9-15.3-7.19-29.68-11.06-30.43-8.49-43.71-17.15-43.71-38.54,0-42.42,42.23-44.45,63.25-44.45,26.56,0,59.93,10.33,59.93,44.26H105.07c0-6.64-6.82-10.33-14.56-10.33-7.93,0-13.1,2-13.1,7,0,7.38,20.84,9.41,33.2,12.36,12.35,2.76,43.89,6.27,43.89,37.8,0,36.88-29.69,44.81-62.89,44.81C42.93,355.78,22.46,329.78,22.46,308.76Z"/><path class="cls-2" d="M296.29,267.27h-42.6v85.19H204.45V267.27H161.86V223.38H296.29Z"/><path class="cls-2" d="M461.88,287.92c0,45.92-31.54,68.05-78.19,68.05s-78.19-22.13-78.19-68.05c0-46.1,31.53-68.05,78.19-68.05S461.88,241.82,461.88,287.92Zm-53.48,0c0-13.28-9.23-21.94-24.71-21.94S359,274.64,359,287.92s9.23,21.76,24.72,21.76S408.4,301.2,408.4,287.92Z"/><path class="cls-2" d="M546.13,318H524.92v34.48H475.68V223.38h76.17c37.62,0,55.87,15.67,55.87,47.39,0,17.15-5.35,29.51-16.23,37.25l24,44.44H562.72ZM524.92,281.1h22.32c8.11,0,12.35-1.85,12.35-10.33,0-8.67-4.24-10.51-12.35-10.51H524.92Z"/><path class="cls-2" d="M709.69,316.32v36.14H660.45V316.32l-46.84-92.94h52.74l16.23,46.47h5l16.22-46.47h52.74Z"/><path class="cls-3" d="M220.33,114.45h-42.6v85.2H128.49v-85.2H85.89V70.56H220.33Z"/><path class="cls-3" d="M304.58,165.16h-21.2v34.49H234.14V70.56H310.3c37.62,0,55.88,15.67,55.88,47.39,0,17.15-5.35,29.51-16.23,37.25l24,44.45H321.18Zm-21.2-36.88h22.31c8.11,0,12.36-1.84,12.36-10.33,0-8.66-4.25-10.51-12.36-10.51H283.38Z"/><path class="cls-3" d="M521.25,70.56V137c0,43.7-23.42,66.2-69,66.2-45.73,0-69.15-22.5-69.15-66.2V70.56h49.24V137c0,14.56,8.3,20.28,19.91,20.28S472.2,151.51,472.2,137V70.56Z"/><path class="cls-3" d="M586.88,109.29v8.29h62.89v35H586.88v8.48h68.23v38.55H537.83V70.56H655.11v38.73Z"/><path class="cls-3" d="M4.39,287.65H50.86c0,8.85,10,11.62,18.26,11.62,9.4,0,13.65-2.22,13.65-6.46,0-5.9-15.31-7.19-29.69-11.06C22.65,273.26,9.37,264.6,9.37,243.21c0-42.42,42.23-44.45,63.25-44.45,26.56,0,59.93,10.33,59.93,44.26H87c0-6.64-6.83-10.33-14.57-10.33-7.93,0-13.1,2-13.1,7,0,7.38,20.84,9.41,33.2,12.36,12.35,2.76,43.89,6.27,43.89,37.8,0,36.88-29.69,44.81-62.89,44.81C24.86,334.67,4.39,308.67,4.39,287.65Z"/><path class="cls-3" d="M278.22,246.16h-42.6v85.19H186.38V246.16H143.79V202.27H278.22Z"/><path class="cls-3" d="M443.81,266.81c0,45.92-31.54,68.05-78.19,68.05s-78.19-22.13-78.19-68.05c0-46.1,31.53-68.05,78.19-68.05S443.81,220.71,443.81,266.81Zm-53.48,0c0-13.28-9.23-21.94-24.71-21.94s-24.71,8.66-24.71,21.94,9.22,21.76,24.71,21.76S390.33,280.09,390.33,266.81Z"/><path class="cls-3" d="M528.06,296.87h-21.2v34.48H457.62V202.27h76.16c37.62,0,55.87,15.67,55.87,47.39,0,17.15-5.34,29.51-16.22,37.25l24,44.44H544.66ZM506.86,260h22.31c8.11,0,12.36-1.85,12.36-10.33,0-8.67-4.25-10.51-12.36-10.51H506.86Z"/><path class="cls-3" d="M691.62,295.21v36.14H642.38V295.21l-46.84-92.94h52.74l16.23,46.47h5l16.23-46.47h52.74Z"/><text class="cls-4" transform="translate(138.48 43.85)">let me tell you a...</text></g></g></svg>